<mxfile host="Electron" agent="Mozilla/5.0 (Windows NT 10.0; Win64; x64) AppleWebKit/537.36 (KHTML, like Gecko) draw.io/26.0.4 Chrome/128.0.6613.186 Electron/32.2.5 Safari/537.36" version="26.0.4">
  <diagram name="Page-1" id="HX-n5RwU4yS9j-6OuBTY">
    <mxGraphModel dx="1100" dy="894" grid="1" gridSize="10" guides="1" tooltips="1" connect="1" arrows="1" fold="1" page="1" pageScale="1" pageWidth="850" pageHeight="1100" math="0" shadow="0">
      <root>
        <mxCell id="0" />
        <mxCell id="1" parent="0" />
        <mxCell id="Q2nsGRmkFAV52NvcU29X-1" value="RawHits" style="rounded=0;whiteSpace=wrap;html=1;fillColor=#4DB6AC;" parent="1" vertex="1">
          <mxGeometry x="90" y="45" width="60" height="30" as="geometry" />
        </mxCell>
        <mxCell id="03DxG6IQkUXKNhE9hXaz-5" value="" style="edgeStyle=orthogonalEdgeStyle;rounded=0;orthogonalLoop=1;jettySize=auto;html=1;" parent="1" source="Q2nsGRmkFAV52NvcU29X-2" target="Q2nsGRmkFAV52NvcU29X-3" edge="1">
          <mxGeometry relative="1" as="geometry" />
        </mxCell>
        <mxCell id="8F0eezevLwGjvQnEkPQW-14" value="" style="edgeStyle=orthogonalEdgeStyle;rounded=0;orthogonalLoop=1;jettySize=auto;html=1;" edge="1" parent="1" source="Q2nsGRmkFAV52NvcU29X-2" target="Q2nsGRmkFAV52NvcU29X-5">
          <mxGeometry relative="1" as="geometry" />
        </mxCell>
        <mxCell id="Q2nsGRmkFAV52NvcU29X-2" value="Hit Processing" style="rounded=1;whiteSpace=wrap;html=1;fillColor=#FF8A65;" parent="1" vertex="1">
          <mxGeometry x="170" y="40" width="90" height="40" as="geometry" />
        </mxCell>
        <mxCell id="Q2nsGRmkFAV52NvcU29X-3" value="Clusters" style="rounded=0;whiteSpace=wrap;html=1;fillColor=#4DB6AC;" parent="1" vertex="1">
          <mxGeometry x="280" y="45" width="62" height="30" as="geometry" />
        </mxCell>
        <mxCell id="Q2nsGRmkFAV52NvcU29X-5" value="Track Finding" style="rounded=1;whiteSpace=wrap;html=1;fillColor=#FF8A65;" parent="1" vertex="1">
          <mxGeometry x="360" y="40" width="91" height="40" as="geometry" />
        </mxCell>
        <mxCell id="Q2nsGRmkFAV52NvcU29X-6" value="Candidates" style="rounded=0;whiteSpace=wrap;html=1;fillColor=#4DB6AC;" parent="1" vertex="1">
          <mxGeometry x="470" y="45" width="80" height="30" as="geometry" />
        </mxCell>
        <mxCell id="Q2nsGRmkFAV52NvcU29X-8" value="Track Fitting" style="rounded=1;whiteSpace=wrap;html=1;fillColor=#FF8A65;" parent="1" vertex="1">
          <mxGeometry x="570" y="40" width="90" height="40" as="geometry" />
        </mxCell>
        <mxCell id="Q2nsGRmkFAV52NvcU29X-9" value="Tracks" style="rounded=0;whiteSpace=wrap;html=1;fillColor=#4DB6AC;" parent="1" vertex="1">
          <mxGeometry x="680" y="45" width="70" height="30" as="geometry" />
        </mxCell>
        <mxCell id="Q2nsGRmkFAV52NvcU29X-17" value="" style="endArrow=classic;html=1;rounded=0;exitX=1;exitY=0.5;exitDx=0;exitDy=0;entryX=0;entryY=0.5;entryDx=0;entryDy=0;strokeColor=#7B7B7B;" parent="1" source="Q2nsGRmkFAV52NvcU29X-1" target="Q2nsGRmkFAV52NvcU29X-2" edge="1">
          <mxGeometry width="50" height="50" relative="1" as="geometry">
            <mxPoint x="455" y="435" as="sourcePoint" />
            <mxPoint x="505" y="385" as="targetPoint" />
          </mxGeometry>
        </mxCell>
        <mxCell id="Q2nsGRmkFAV52NvcU29X-18" value="" style="endArrow=classic;html=1;rounded=0;entryX=0;entryY=0.5;entryDx=0;entryDy=0;strokeColor=#7B7B7B;" parent="1" target="Q2nsGRmkFAV52NvcU29X-3" edge="1">
          <mxGeometry width="50" height="50" relative="1" as="geometry">
            <mxPoint x="270" y="60" as="sourcePoint" />
            <mxPoint x="285" y="59.76" as="targetPoint" />
          </mxGeometry>
        </mxCell>
        <mxCell id="Q2nsGRmkFAV52NvcU29X-19" value="" style="endArrow=classic;html=1;rounded=0;exitX=1;exitY=0.5;exitDx=0;exitDy=0;entryX=0;entryY=0.5;entryDx=0;entryDy=0;strokeColor=#7B7B7B;" parent="1" source="Q2nsGRmkFAV52NvcU29X-3" target="Q2nsGRmkFAV52NvcU29X-5" edge="1">
          <mxGeometry width="50" height="50" relative="1" as="geometry">
            <mxPoint x="295" y="69.5" as="sourcePoint" />
            <mxPoint x="325" y="69.5" as="targetPoint" />
          </mxGeometry>
        </mxCell>
        <mxCell id="Q2nsGRmkFAV52NvcU29X-20" value="" style="endArrow=classic;html=1;rounded=0;exitX=1;exitY=0.5;exitDx=0;exitDy=0;entryX=0;entryY=0.5;entryDx=0;entryDy=0;strokeColor=#7B7B7B;" parent="1" source="Q2nsGRmkFAV52NvcU29X-5" target="Q2nsGRmkFAV52NvcU29X-6" edge="1">
          <mxGeometry width="50" height="50" relative="1" as="geometry">
            <mxPoint x="305" y="79.5" as="sourcePoint" />
            <mxPoint x="335" y="79.5" as="targetPoint" />
          </mxGeometry>
        </mxCell>
        <mxCell id="Q2nsGRmkFAV52NvcU29X-21" value="" style="endArrow=classic;html=1;rounded=0;exitX=1;exitY=0.5;exitDx=0;exitDy=0;entryX=0;entryY=0.5;entryDx=0;entryDy=0;strokeColor=#7B7B7B;" parent="1" source="Q2nsGRmkFAV52NvcU29X-6" target="Q2nsGRmkFAV52NvcU29X-8" edge="1">
          <mxGeometry width="50" height="50" relative="1" as="geometry">
            <mxPoint x="315" y="89.5" as="sourcePoint" />
            <mxPoint x="345" y="89.5" as="targetPoint" />
          </mxGeometry>
        </mxCell>
        <mxCell id="Q2nsGRmkFAV52NvcU29X-22" value="" style="endArrow=classic;html=1;rounded=0;exitX=1;exitY=0.5;exitDx=0;exitDy=0;entryX=0;entryY=0.5;entryDx=0;entryDy=0;strokeColor=#7B7B7B;" parent="1" source="Q2nsGRmkFAV52NvcU29X-8" target="Q2nsGRmkFAV52NvcU29X-9" edge="1">
          <mxGeometry width="50" height="50" relative="1" as="geometry">
            <mxPoint x="325" y="99.5" as="sourcePoint" />
            <mxPoint x="355" y="99.5" as="targetPoint" />
          </mxGeometry>
        </mxCell>
        <mxCell id="03DxG6IQkUXKNhE9hXaz-2" style="edgeStyle=orthogonalEdgeStyle;rounded=0;orthogonalLoop=1;jettySize=auto;html=1;exitX=0.5;exitY=1;exitDx=0;exitDy=0;" parent="1" source="Q2nsGRmkFAV52NvcU29X-5" target="Q2nsGRmkFAV52NvcU29X-5" edge="1">
          <mxGeometry relative="1" as="geometry" />
        </mxCell>
        <mxCell id="8F0eezevLwGjvQnEkPQW-6" value="&lt;span style=&quot;color: rgb(0, 0, 0); font-family: Helvetica; font-size: 12px; font-style: normal; font-variant-ligatures: normal; font-variant-caps: normal; letter-spacing: normal; orphans: 2; text-align: center; text-indent: 0px; text-transform: none; widows: 2; word-spacing: 0px; -webkit-text-stroke-width: 0px; white-space: normal; background-color: rgb(251, 251, 251); text-decoration-thickness: initial; text-decoration-style: initial; text-decoration-color: initial; float: none; display: inline !important;&quot;&gt;&lt;b&gt;Legend:&lt;/b&gt;&lt;/span&gt;" style="text;whiteSpace=wrap;html=1;" vertex="1" parent="1">
          <mxGeometry x="90" y="110" width="90" height="30" as="geometry" />
        </mxCell>
        <mxCell id="8F0eezevLwGjvQnEkPQW-1" value="" style="rounded=1;whiteSpace=wrap;html=1;fillColor=#FF8A65;" vertex="1" parent="1">
          <mxGeometry x="140" y="117.5" width="30" height="15" as="geometry" />
        </mxCell>
        <mxCell id="8F0eezevLwGjvQnEkPQW-2" value="&lt;span style=&quot;color: rgb(0, 0, 0); font-family: Helvetica; font-size: 12px; font-style: normal; font-variant-ligatures: normal; font-variant-caps: normal; font-weight: 400; letter-spacing: normal; orphans: 2; text-align: center; text-indent: 0px; text-transform: none; widows: 2; word-spacing: 0px; -webkit-text-stroke-width: 0px; white-space: normal; background-color: rgb(251, 251, 251); text-decoration-thickness: initial; text-decoration-style: initial; text-decoration-color: initial; float: none; display: inline !important;&quot;&gt;- Algorithms&lt;/span&gt;" style="text;whiteSpace=wrap;html=1;" vertex="1" parent="1">
          <mxGeometry x="170" y="110" width="70" height="30" as="geometry" />
        </mxCell>
        <mxCell id="8F0eezevLwGjvQnEkPQW-4" value="" style="rounded=0;whiteSpace=wrap;html=1;fillColor=#4DB6AC;" vertex="1" parent="1">
          <mxGeometry x="250" y="117.5" width="30" height="15" as="geometry" />
        </mxCell>
        <mxCell id="8F0eezevLwGjvQnEkPQW-5" value="&lt;span style=&quot;color: rgb(0, 0, 0); font-family: Helvetica; font-size: 12px; font-style: normal; font-variant-ligatures: normal; font-variant-caps: normal; font-weight: 400; letter-spacing: normal; orphans: 2; text-align: center; text-indent: 0px; text-transform: none; widows: 2; word-spacing: 0px; -webkit-text-stroke-width: 0px; white-space: normal; background-color: rgb(251, 251, 251); text-decoration-thickness: initial; text-decoration-style: initial; text-decoration-color: initial; float: none; display: inline !important;&quot;&gt;- Data&lt;/span&gt;" style="text;whiteSpace=wrap;html=1;" vertex="1" parent="1">
          <mxGeometry x="280" y="110" width="40" height="30" as="geometry" />
        </mxCell>
        <mxCell id="8F0eezevLwGjvQnEkPQW-10" value="" style="endArrow=classic;html=1;rounded=0;entryX=0;entryY=0.5;entryDx=0;entryDy=0;strokeColor=#7B7B7B;" edge="1" parent="1">
          <mxGeometry width="50" height="50" relative="1" as="geometry">
            <mxPoint x="330" y="130" as="sourcePoint" />
            <mxPoint x="345" y="117.5" as="targetPoint" />
          </mxGeometry>
        </mxCell>
        <mxCell id="8F0eezevLwGjvQnEkPQW-11" value="&lt;span style=&quot;color: rgb(0, 0, 0); font-family: Helvetica; font-size: 12px; font-style: normal; font-variant-ligatures: normal; font-variant-caps: normal; font-weight: 400; letter-spacing: normal; orphans: 2; text-align: center; text-indent: 0px; text-transform: none; widows: 2; word-spacing: 0px; -webkit-text-stroke-width: 0px; white-space: normal; background-color: rgb(251, 251, 251); text-decoration-thickness: initial; text-decoration-style: initial; text-decoration-color: initial; float: none; display: inline !important;&quot;&gt;- Flow&lt;/span&gt;" style="text;whiteSpace=wrap;html=1;" vertex="1" parent="1">
          <mxGeometry x="350" y="110" width="40" height="30" as="geometry" />
        </mxCell>
      </root>
    </mxGraphModel>
  </diagram>
</mxfile>
